<svg width="186" height="24" viewBox="0 0 186 24" fill="none" xmlns="http://www.w3.org/2000/svg">
<g clip-path="url(#clip0_738_5082)">
<path fill-rule="evenodd" clip-rule="evenodd" d="M10.3518 18.3728C9.03928 14.4171 14.2801 8.69308 22.0573 5.58784C28.2029 3.13427 34.0906 3.05174 36.939 5.07622C36.9225 5.01931 36.9062 4.96241 36.8876 4.90612C35.2912 0.0943713 25.9557 -0.595477 16.0365 3.36528C6.11719 7.32573 -0.630242 14.437 0.966269 19.2486C2.40915 23.597 10.1729 24.5783 18.9759 21.8034C14.5865 22.1217 11.2006 20.932 10.3518 18.3728Z" fill="#008AC4"/>
<path fill-rule="evenodd" clip-rule="evenodd" d="M34.3684 7.77344C33.8901 9.72259 31.4912 12.0321 28.2039 13.4892C24.0439 15.3331 20.0398 15.1122 19.2607 12.9966C18.7566 11.6279 19.7269 9.80131 21.6006 8.18288C17.1367 10.568 14.3331 14.0528 15.1899 16.3784C16.1378 18.9524 21.2075 19.1321 26.5133 16.7808C31.819 14.4291 35.3519 10.4361 34.4039 7.86255C34.393 7.8322 34.3807 7.80287 34.3684 7.77344Z" fill="#008AC4"/>
<path fill-rule="evenodd" clip-rule="evenodd" d="M82.6884 12.2243C82.6884 13.5011 82.3033 14.5866 81.5338 15.4801C80.7647 16.3738 79.8369 16.8204 78.7504 16.8204H77.994C76.8948 16.8204 75.9605 16.3738 75.1911 15.4801C74.4216 14.5866 74.0372 13.5011 74.0372 12.2243V12.0117C74.0372 10.7349 74.4216 9.64968 75.1911 8.75578C75.9605 7.86218 76.8948 7.4156 77.994 7.4156H78.7504C79.8369 7.4156 80.7647 7.86218 81.5338 8.75578C82.3033 9.64968 82.6884 10.7349 82.6884 12.0117V12.2243ZM79.0801 5.30859H77.6643C76.0738 5.30859 74.719 5.9225 73.6005 7.14929C72.482 8.37638 71.9229 9.86227 71.9229 11.6073V12.5434C71.9229 14.2884 72.482 15.7745 73.6005 17.0013C74.719 18.2288 76.0738 18.842 77.6643 18.842H79.0801C80.6707 18.842 82.0253 18.2288 83.144 17.0013C84.2625 15.7745 84.822 14.2884 84.822 12.5434V11.6073C84.822 9.86227 84.2625 8.37638 83.144 7.14929C82.0253 5.9225 80.6707 5.30859 79.0801 5.30859Z" fill="#011826"/>
<path fill-rule="evenodd" clip-rule="evenodd" d="M110.95 14.3507C110.95 14.9465 110.772 15.4573 110.417 15.8827C110.061 16.3083 109.631 16.5208 109.127 16.5208H104.384H102.571H102.299V16.2017V14.6036V9.56517V7.98832V7.64761H102.571H104.384H109.127C109.631 7.64761 110.061 7.86422 110.417 8.29681C110.772 8.72972 110.95 9.24381 110.95 9.8393V14.3507ZM109.32 5.32812H102.505H100.456H100.185V5.66883V7.10965V17.0594V18.5212V18.8403H100.456H102.505H109.32C110.355 18.8403 111.241 18.4009 111.978 17.5214C112.715 16.6418 113.083 15.5775 113.083 14.3295V9.8393C113.083 8.59152 112.715 7.52722 111.978 6.64772C111.241 5.76823 110.355 5.32812 109.32 5.32812Z" fill="#011826"/>
<path fill-rule="evenodd" clip-rule="evenodd" d="M69.8498 16.5228H62.5519C62.138 16.5228 61.7857 16.3494 61.4951 16.0018C61.2038 15.654 61.0583 15.2323 61.0583 14.7356V7.71773V5.67082V5.30882C60.251 5.30038 59.5504 5.53263 58.9443 5.91676V7.71773V14.991C58.9443 16.0547 59.2575 16.9629 59.8848 17.7146C60.5118 18.4666 61.2717 18.8423 62.164 18.8423H69.8498H71.7658H72.0373V18.5019V16.842V16.5228H71.7658H69.8498Z" fill="#011826"/>
<path fill-rule="evenodd" clip-rule="evenodd" d="M98.2679 5.32979C97.6371 5.39328 97.0773 5.60649 96.5813 5.9225V8.61233L96.57 12.2455C96.57 13.5086 96.1852 14.5866 95.4165 15.4798C94.6468 16.3734 93.7186 16.8204 92.633 16.8204H91.8757C90.7898 16.8204 89.8618 16.3772 89.0925 15.4905C88.3231 14.6041 87.9319 13.5298 87.9191 12.2668V8.27544V5.6705V5.30859H85.8047V5.6705V8.27544V12.5434C85.8047 14.2884 86.364 15.7745 87.4827 17.0013C88.6007 18.2288 89.9556 18.842 91.5464 18.842H92.9623C94.5531 18.842 95.9073 18.2288 97.0258 17.0013C98.1444 15.7745 98.7042 14.2884 98.7042 12.5434V8.6145V5.6705V5.32979H98.4325H98.2679Z" fill="#011826"/>
<path fill-rule="evenodd" clip-rule="evenodd" d="M55.1779 5.32812H50.6688C49.1175 5.32812 47.7912 5.98484 46.6927 7.29631C45.5932 8.60871 45.0439 10.194 45.0439 12.0525V12.1163C45.0439 13.9747 45.5932 15.56 46.6927 16.8721C47.7912 18.1846 49.1175 18.8403 50.6688 18.8403H55.1779H57.6713H57.9431V18.5V16.8615V16.5208H57.6713H55.1779H50.863C49.8413 16.5208 48.9685 16.0883 48.2444 15.2231C47.5201 14.3579 47.1583 13.315 47.1583 12.095C47.1583 10.861 47.5073 9.81111 48.2056 8.94561C48.9038 8.08052 49.7895 7.64761 50.863 7.64761H55.1779H57.6713H57.9431V7.32852V5.66883V5.32812H57.6713H55.1779Z" fill="#011826"/>
<path fill-rule="evenodd" clip-rule="evenodd" d="M139.573 5.32812H130.884H129.779H129.176V5.66883V8.54028V17.3922V18.5V18.8471H132.321V18.8403H140.721H141.844H142.231V18.4363V16.9466V16.5208H141.861H140.721H132.244H131.562H131.291V13.244H132.244H136.809H138.332H138.72V12.8398V12.361V11.8181V11.2577V10.9457H138.351H136.809H134.312H131.562H131.291V7.98832V7.64761H131.562H134.312H139.573H141.959H142.347V5.32812H141.959H139.573Z" fill="#011826"/>
<path fill-rule="evenodd" clip-rule="evenodd" d="M173.99 7.64761H174.261H177.01H182.271H184.657H185.046V5.32812H184.657H182.271H173.583H172.477H171.875V5.66883V8.54028V17.3922V18.4999V18.8475H175.02V18.8404H183.421H184.542H184.929V18.4362V16.9465V16.5209H184.561H183.421H174.942H174.261H173.99V13.2439H174.942H179.508H181.03H181.419V12.8398V12.3613V11.8181V11.2577V10.9457H181.051H179.508H177.01H174.261H173.99V7.98832V7.64761Z" fill="#011826"/>
<path fill-rule="evenodd" clip-rule="evenodd" d="M167.282 5.32812H160.609C159.73 5.32812 158.981 5.70073 158.359 6.44522C157.738 7.19032 157.428 8.08772 157.428 9.13731V9.4348C157.428 10.4988 157.738 11.4033 158.359 12.1478C158.981 12.893 159.73 13.2652 160.609 13.2652L167.34 13.244C167.611 13.244 167.837 13.3436 168.019 13.5418C168.199 13.741 168.317 13.9319 168.368 14.1166C168.42 14.3007 168.452 14.4779 168.465 14.6486C168.477 14.7621 168.471 14.9074 168.445 15.0846C168.42 15.2622 168.374 15.4675 168.311 15.7019C168.246 15.9358 168.119 16.1307 167.932 16.2871C167.744 16.4434 167.514 16.5208 167.242 16.5208H158.748H157.719H157.428V16.8827V18.5212V18.8403H157.699H158.748H167.514C168.355 18.8403 169.07 18.4647 169.659 17.7127C170.247 16.9609 170.54 16.0529 170.54 14.989V14.7761C170.54 14.5351 170.525 14.2797 170.491 14.0101C170.459 13.741 170.379 13.4109 170.249 13.0205C170.121 12.6307 169.943 12.29 169.716 11.999C169.49 11.7084 169.164 11.4602 168.737 11.2545C168.311 11.0492 167.812 10.9457 167.242 10.9457H160.919C160.531 10.9457 160.204 10.7829 159.941 10.4566C159.675 10.1303 159.542 9.74021 159.542 9.286C159.542 8.8319 159.675 8.44561 159.941 8.12641C160.204 7.80732 160.531 7.64761 160.919 7.64761H167.282H170.249H170.545V5.32812H170.249H167.282Z" fill="#011826"/>
<path fill-rule="evenodd" clip-rule="evenodd" d="M153.043 13.0099H147.86H145.731H145.535V12.7758V10.996V10.7594V7.88171V7.64761H145.731H148.227H153.14C153.567 7.64761 153.893 7.88922 154.119 8.37121C154.346 8.85371 154.459 9.50641 154.459 10.3287C154.459 10.556 154.439 10.8044 154.401 11.0736C154.361 11.3433 154.294 11.6305 154.197 11.9353C154.1 12.2407 153.952 12.496 153.751 12.7014C153.55 12.9073 153.315 13.0099 153.043 13.0099ZM153.779 15.4573C153.753 15.4144 153.749 15.3722 153.76 15.3293C153.773 15.2869 153.8 15.2585 153.839 15.244C154.355 15.1166 154.805 14.8505 155.187 14.4464C155.567 14.0419 155.849 13.5777 156.03 13.0527C156.211 12.5279 156.341 12.0384 156.418 11.584C156.496 11.1304 156.535 10.7116 156.535 10.3287C156.535 8.82531 156.234 7.61572 155.632 6.70082C155.031 5.78573 154.266 5.32812 153.334 5.32812H145.016H143.616H143.422V5.56222V8.07959V16.6405V18.6278V18.8403H143.616H145.265H145.535V18.5212V17.4166V16.6405V15.6485V15.3147H145.778C145.79 15.3134 145.797 15.3081 145.808 15.3081L147.16 15.3147H147.163L150.269 15.3293C150.462 15.3293 150.638 15.4144 150.794 15.5847L152.402 17.4425L152.644 17.7222L153.608 18.8403H153.974H154.484H155.516H156.127H156.618L155.947 18.0752L153.779 15.4573Z" fill="#011826"/>
<path fill-rule="evenodd" clip-rule="evenodd" d="M128.141 5.32812C127.151 5.42753 126.332 5.89696 125.664 6.55367L122.733 14.9678C122.577 15.4079 122.332 15.7619 121.995 16.0313C121.66 16.3011 121.291 16.4434 120.89 16.4571C120.49 16.4434 120.121 16.3011 119.785 16.0313C119.448 15.7619 119.202 15.4079 119.048 14.9678L115.689 5.32812H115.401H115.143H113.807H113.461H113.202L113.305 5.61975L113.306 5.62602L116.914 15.7763C117.353 17.0247 118.052 17.897 119.009 18.3937C119.648 18.7155 120.275 18.86 120.89 18.8394C121.506 18.86 122.133 18.7155 122.772 18.3937C123.729 17.897 124.427 17.0247 124.867 15.7763L128.475 5.62602C128.476 5.62376 128.476 5.61975 128.476 5.61975L128.578 5.32812H128.319H128.141Z" fill="#011826"/>
</g>
<defs>
<clipPath id="clip0_738_5082">
<rect width="185.778" height="24" fill="white"/>
</clipPath>
</defs>
</svg>
